<svg width="12" height="12" viewBox="0 0 12 12" fill="none" xmlns="http://www.w3.org/2000/svg">
<path fill-rule="evenodd" clip-rule="evenodd" d="M5.84718 0.768961C5.67777 0.819164 5.46083 0.958219 5.36406 1.07864L5.29363 1.1663L5.18162 1.05429C5.09071 0.963352 5.04559 0.937289 4.94197 0.915774C4.85157 0.897024 4.2632 0.891188 2.92667 0.895805L1.03904 0.902344L0.943581 0.968508C0.891081 1.00488 0.834175 1.06816 0.817136 1.10913C0.792292 1.16883 0.786058 1.57629 0.785706 3.16498C0.785214 5.34811 0.772253 5.14629 0.924948 5.33327L0.983354 5.40483L0.922558 5.49431C0.712745 5.80308 0.712651 6.33551 0.922347 6.59623L0.977753 6.66509L0.887354 6.80494C0.837644 6.88184 0.796112 6.96687 0.795058 6.99387C0.782237 7.32293 0.803776 10.9833 0.818776 11.0218C0.842026 11.0817 0.946862 11.1841 1.0273 11.2255C1.09175 11.2587 4.82282 11.2617 4.93808 11.2287C5.06811 11.1914 5.15671 11.1313 5.21785 11.0389L5.27914 10.9463L5.38944 11.0589C5.77862 11.4564 6.3568 11.4655 6.73405 11.08L6.85557 10.9558L6.92354 11.034C6.96092 11.077 7.04476 11.1391 7.10982 11.1721L7.22811 11.232L9.10433 11.2384C10.1558 11.2419 11.0181 11.2354 11.0659 11.2237C11.1765 11.1965 11.3123 11.0478 11.3344 10.9297C11.3436 10.8809 11.3435 9.96541 11.3342 8.89528C11.3177 7.00137 11.316 6.94758 11.27 6.87323C11.2441 6.83121 11.2009 6.78145 11.174 6.76266L11.1252 6.72848L11.1895 6.63577C11.3108 6.46064 11.3661 6.28739 11.3667 6.08044C11.3674 5.84538 11.3239 5.69466 11.2073 5.5282L11.1168 5.39895L11.1866 5.33034C11.225 5.29259 11.2757 5.21897 11.2992 5.16673C11.3394 5.07743 11.3421 4.95544 11.3449 3.13399L11.3479 1.19627L11.2931 1.09617C11.2572 1.03052 11.2061 0.979969 11.1446 0.949219C11.0535 0.903656 10.9971 0.902156 9.14675 0.895828C7.28 0.88943 7.24058 0.890227 7.13886 0.936586C7.08177 0.962578 6.99521 1.02968 6.94646 1.08572L6.85785 1.18758L6.76822 1.07421C6.55199 0.800625 6.16883 0.673641 5.84718 0.768961ZM2.22081 1.65809L1.54698 1.66479L1.547 2.38512C1.54707 3.77391 1.57583 5.1123 1.60539 5.10096C1.64985 5.08392 1.85181 5.12899 2.0222 5.19398C2.20949 5.26542 2.40198 5.42927 2.48645 5.58914L2.54307 5.69634L2.8712 5.68997L3.19932 5.68359L3.21104 4.5927C3.22403 3.38302 3.21805 3.4272 3.38223 3.32709C3.45369 3.28352 3.50823 3.28141 4.56456 3.28134L5.67198 3.28125V2.89645V2.51163L5.59332 2.46302C5.38464 2.33405 5.19946 2.05235 5.14513 1.78125L5.11928 1.65234L4.00696 1.65185C3.39519 1.65159 2.59142 1.65438 2.22081 1.65809ZM7.02095 1.69322C7.01598 1.70941 7.00635 1.76257 6.99953 1.81137C6.96777 2.03904 6.77134 2.32772 6.56546 2.44922L6.44635 2.51953L6.44589 2.88867L6.44542 3.25781H7.55947H8.67353L8.78556 3.31458C8.84717 3.3458 8.91273 3.3896 8.93127 3.41191C8.95914 3.44545 8.96696 3.64509 8.97667 4.56804L8.98839 5.68359L9.29307 5.68894L9.59776 5.69426L9.68968 5.55241C9.8521 5.30184 10.1094 5.14345 10.398 5.1165L10.547 5.1026L10.5513 3.72902C10.5538 2.97356 10.5564 2.20254 10.5572 2.01563L10.5587 1.67578L8.79435 1.66978C7.39435 1.665 7.02812 1.66985 7.02095 1.69322ZM3.2015 6.43922C3.19196 6.44876 3.03992 6.45377 2.86363 6.45038L2.54307 6.44421L2.46104 6.57696C2.30242 6.8337 2.00584 7.01177 1.72864 7.01672L1.57046 7.01953L1.5763 8.74219L1.58214 10.4648H3.34386C4.31282 10.4648 5.1111 10.4593 5.11782 10.4526C5.12457 10.4459 5.14621 10.363 5.16592 10.2684C5.18565 10.1738 5.23037 10.0477 5.26532 9.98801C5.34859 9.84591 5.50953 9.67537 5.61289 9.61971L5.69542 9.57527V9.18218V8.78906L4.588 8.78902C3.3515 8.78899 3.37548 8.79195 3.26139 8.625L3.2053 8.54297L3.22 7.48242C3.22808 6.89913 3.23113 6.42188 3.22677 6.42188C3.22241 6.42188 3.21104 6.42968 3.2015 6.43922ZM9.0001 7.47609C9.0001 8.59202 8.99664 8.62099 8.85095 8.72491C8.77778 8.77711 8.77227 8.77739 7.60557 8.78906L6.4337 8.80078L6.42725 9.18087L6.42083 9.56095L6.5191 9.61109C6.65298 9.67938 6.82752 9.86391 6.89954 10.0132C6.93228 10.0811 6.97114 10.2079 6.98591 10.2949L7.01272 10.4531L8.29353 10.4553C8.99797 10.4565 9.79581 10.4592 10.0665 10.4612L10.5587 10.4648L10.5544 9.86719C10.552 9.53848 10.5493 8.76216 10.5485 8.14205L10.547 7.01459L10.3699 7.00118C10.0851 6.97964 9.87109 6.84708 9.64949 6.55502L9.58405 6.46875H9.29207H9.0001V7.47609Z" fill="#5C5C7B"/>
</svg>
